# xmcd CD database file
#
# Track frame offsets:
#	150
#	15375
#	32550
#	48675
#	64350
#	79200
#	97500
#	112500
#	128475
#	140775
#	155850
#	171375
#	187050
#	202575
#	218700
#	242250
#	258825
#	276075
#	295575
#	314100
#
# Disc length: 4420 seconds
#
# Revision: 0
# Processed by: cddbd v1.5.2PL0 Copyright (c) Steve Scherf et al.
# Submitted via: CDex 1.51
#
DISCID=14114214
DTITLE=Durval and Davi - Série 2 LPS
DYEAR=2005
DGENRE=Sertanejo
TTITLE0=Canção da Esperança
TTITLE1=Mentira
TTITLE2=Ainda Resta Esperança
TTITLE3=Canção do Nosso Amor
TTITLE4=O Filho de Deus
TTITLE5=Fora de Moda
TTITLE6=Não Se Esqueça de Lembrar (Don' t Forget)
TTITLE7=Banco Reclinável
TTITLE8=Lembrança Paraguaia
TTITLE9=Vou Quebrar o Pau
TTITLE10=Saudade de Joelhos
TTITLE11=É Triste Amar Você
TTITLE12=Deixe de Sonhar
TTITLE13=Marca Registrada 
TTITLE14=Parece Que Foi Ontem
TTITLE15=Tô Carente de Você
TTITLE16=Zé Pedreiro
TTITLE17=Faróis
TTITLE18=Dona da Minha Vida
TTITLE19=João e o Cão
EXTD=YEAR: 2005
EXTT0=
EXTT1=
EXTT2=
EXTT3=
EXTT4=
EXTT5=
EXTT6=
EXTT7=
EXTT8=
EXTT9=
EXTT10=
EXTT11=
EXTT12=
EXTT13=
EXTT14=
EXTT15=
EXTT16=
EXTT17=
EXTT18=
EXTT19=
PLAYORDER=
